<svg width="40" height="30" viewBox="0 0 40 30" fill="none" xmlns="http://www.w3.org/2000/svg"><g clip-path="url(#clip0)"><path transform="rotate(-90 10 30)" fill="#E5E5E5" d="M10 30H30V50H10z"/></g><g clip-path="url(#clip1)"><path fill-rule="evenodd" clip-rule="evenodd" d="M1.19249e-07 20L10 20L10 30C4.47715 30 5.33895e-08 25.5228 1.19249e-07 20Z" fill="#E5E5E5"/></g><path fill-rule="evenodd" clip-rule="evenodd" d="M10 10V20H0C0 14.4772 4.47715 10 10 10Z" fill="#E5E5E5"/><g clip-path="url(#clip2)"><path fill-rule="evenodd" clip-rule="evenodd" d="M20 0V10H9.99996C9.99996 4.47715 14.4771 0 20 0Z" fill="#E5E5E5"/></g><g clip-path="url(#clip3)"><path fill-rule="evenodd" clip-rule="evenodd" d="M30 10L20 10L20 0C25.5228 2.41411e-07 30 4.47715 30 10Z" fill="#E5E5E5"/></g><g clip-path="url(#clip4)"><path fill-rule="evenodd" clip-rule="evenodd" d="M40 20L30 20L30 10C35.5228 10 40 14.4772 40 20Z" fill="#E5E5E5"/></g><g clip-path="url(#clip5)"><path fill-rule="evenodd" clip-rule="evenodd" d="M30 30L29.9905 30L30 30L30 10L30 20L40 20C40 25.5228 35.5228 30 30 30Z" fill="#E5E5E5"/></g><defs><clipPath id="clip0"><path fill="#fff" transform="rotate(-90 20 10)" d="M0 0H20V20H0z"/></clipPath><clipPath id="clip1"><path fill="#fff" transform="rotate(-90 15 15)" d="M0 0H10V10H0z"/></clipPath><clipPath id="clip2"><path fill="#fff" transform="translate(10)" d="M0 0H10V10H0z"/></clipPath><clipPath id="clip3"><path fill="#fff" transform="rotate(90 15 15)" d="M0 0H10V10H0z"/></clipPath><clipPath id="clip4"><path fill="#fff" transform="rotate(90 15 25)" d="M0 0H10V10H0z"/></clipPath><clipPath id="clip5"><path fill="#fff" transform="rotate(-180 20 15)" d="M0 0H10V10H0z"/></clipPath></defs></svg>