<svg width="38" height="29" viewBox="0 0 38 29" fill="none" xmlns="http://www.w3.org/2000/svg"><path d="M23.1895 9.6513C22.8845 9.34634 22.3887 9.34634 22.0838 9.6513C21.7788 9.95626 21.7788 10.4536 22.0838 10.757C22.969 11.6422 23.4584 12.8198 23.4584 14.0741C23.4584 16.6607 21.3534 18.7658 18.7667 18.7658C17.5125 18.7658 16.3349 18.2778 15.4497 17.3911C15.1447 17.0861 14.6489 17.0861 14.344 17.3911C14.039 17.6945 14.039 18.1918 14.344 18.4968C15.5231 19.6791 17.0948 20.3297 18.7667 20.3297C22.2167 20.3297 25.0223 17.5241 25.0223 14.0741C25.0223 12.4022 24.3718 10.8305 23.1895 9.6513Z" fill="#8B8B8B"/><path d="M19.8569 7.92627C19.5018 7.86374 19.139 7.81836 18.7668 7.81836C15.3169 7.81836 12.5112 10.624 12.5112 14.074C12.5112 14.4462 12.5566 14.809 12.6207 15.164C12.6879 15.5425 13.0179 15.8099 13.3886 15.8099C13.434 15.8099 13.4793 15.8068 13.5262 15.7974C13.95 15.7223 14.2346 15.3157 14.1596 14.8919C14.1111 14.626 14.0751 14.3555 14.0751 14.074C14.0751 11.4873 16.1802 9.38224 18.7668 9.38224C19.0483 9.38224 19.3189 9.41824 19.5847 9.46515C20.0008 9.54961 20.4152 9.25557 20.4902 8.83177C20.5653 8.40798 20.2807 8.00134 19.8569 7.92627Z" fill="#8B8B8B"/><path d="M37.3476 13.5689C37.1708 13.3593 32.9405 8.4221 27.1055 5.39909C26.727 5.2005 26.2501 5.35063 26.0514 5.73536C25.8528 6.11854 26.003 6.59079 26.3877 6.78945C30.8824 9.11655 34.4731 12.7479 35.7008 14.0742C33.8366 16.0931 26.5003 23.4576 18.7668 23.4576C16.1426 23.4576 13.498 22.8242 10.9035 21.5731C10.5187 21.3839 10.048 21.5481 9.86037 21.9375C9.67116 22.3254 9.83537 22.7929 10.2248 22.9806C13.032 24.3365 15.9065 25.0215 18.7669 25.0215C28.4021 25.0215 36.988 15.0062 37.3493 14.5793C37.5962 14.2883 37.5947 13.8613 37.3476 13.5689Z" fill="#8B8B8B"/><path d="M23.8982 4.02752C22.1185 3.42852 20.392 3.12671 18.767 3.12671C9.13174 3.12671 0.545886 13.142 0.184623 13.5689C-0.043732 13.8379 -0.0624989 14.2289 0.140858 14.5214C0.248768 14.6762 2.83391 18.3467 7.3145 21.3228C7.44741 21.412 7.59601 21.4542 7.74614 21.4542C7.99796 21.4542 8.24662 21.3322 8.39675 21.1023C8.63603 20.7442 8.53751 20.2578 8.17778 20.0201C4.88734 17.8322 2.63532 15.1907 1.79234 14.1163C3.59243 12.1614 10.9772 4.69067 18.767 4.69067C20.223 4.69067 21.7822 4.96594 23.3993 5.50857C23.809 5.65555 24.2532 5.42881 24.3892 5.01747C24.5269 4.60776 24.3079 4.16519 23.8982 4.02752Z" fill="#8B8B8B"/><path id="pass_last" d="M32.6122 0.228722C32.3073 -0.0762405 31.8115 -0.0762405 31.5065 0.228722L4.92013 26.8152C4.61517 27.1201 4.61517 27.6159 4.92013 27.9209C5.07342 28.0726 5.27355 28.1492 5.47375 28.1492C5.67396 28.1492 5.87409 28.0726 6.02584 27.9209L32.6122 1.33443C32.9172 1.02947 32.9172 0.533684 32.6122 0.228722Z" fill="#8B8B8B"/></svg>