<svg width="30" height="30" viewBox="0 0 30 30" fill="none" xmlns="http://www.w3.org/2000/svg"><circle cx="15" cy="15" r="15" fill="#000"/><path d="M19.1857 8.24963H10.0645C9.03474 8.24963 8.25012 9.03425 8.25012 10.0641V19.1852C8.25012 20.2151 9.03474 20.9997 10.0645 20.9997H19.1857C20.2155 20.9997 21.0001 20.2151 21.0001 19.1852V10.0641C21.0001 9.03425 20.2155 8.24963 19.1857 8.24963ZM14.6251 18.4497C16.7338 18.4497 18.4501 16.7824 18.4501 14.7718C18.4501 14.4285 18.4011 14.0362 18.303 13.742H19.3819V18.9401C19.3819 19.1852 19.1857 19.4304 18.8915 19.4304H10.3588C10.1136 19.4304 9.86839 19.2343 9.86839 18.9401V13.6929H10.9963C10.8982 14.0362 10.8492 14.3795 10.8492 14.7227C10.8001 16.7824 12.5165 18.4497 14.6251 18.4497ZM14.6251 16.9785C13.252 16.9785 12.1732 15.8997 12.1732 14.5756C12.1732 13.2516 13.252 12.1727 14.6251 12.1727C15.9982 12.1727 17.077 13.2516 17.077 14.5756C17.077 15.9487 15.9982 16.9785 14.6251 16.9785ZM19.3328 11.7314C19.3328 12.0256 19.0876 12.2708 18.7934 12.2708H17.4203C17.1261 12.2708 16.8809 12.0256 16.8809 11.7314V10.4073C16.8809 10.1131 17.1261 9.86791 17.4203 9.86791H18.7934C19.0876 9.86791 19.3328 10.1131 19.3328 10.4073V11.7314Z" fill="#fff"/></svg>