<svg width="155" height="22" viewBox="0 0 155 22" fill="none" xmlns="http://www.w3.org/2000/svg"><path d="M20.0622 21.6845H0V0H20.0622C20.0622 8.1034 14.4656 10.8423 14.4656 10.8423C14.4656 10.8423 20.0622 13.5706 20.0622 21.6845Z" fill="#262626"/><path fill-rule="evenodd" clip-rule="evenodd" d="M39.2853 11.5623L44.0583 0H38.334L34.2434 10.2241C33.858 10.2 33.4625 10.1879 33.0568 10.1879V0H27.1976V21.6808H33.049L33.0568 11.4921C33.0568 11.4921 34.8808 11.4717 36.6198 14.2966C37.6904 16.0377 37.5392 21.6808 37.5392 21.6808H43.8861C43.8854 16.4528 42.2367 13.2204 39.2853 11.5623ZM60.1773 12.9207C60.1773 7.22941 56.6454 4.04451 52.5533 4.04451C47.7265 4.04451 44.5094 7.4664 44.5094 13.1577C44.5094 18.849 48.0413 21.9992 52.1334 21.9992C56.9594 21.9992 60.1773 18.5811 60.1773 12.9207ZM51.9581 5.97583C52.6928 5.97583 53.253 6.88979 53.6722 8.68602C54.0922 10.4815 54.3017 12.5472 54.3017 14.9155C54.3017 18.4053 54.022 20.0656 52.7279 20.0656C51.9931 20.0656 51.4337 19.1811 51.0137 17.3887C50.5938 15.5962 50.3842 13.4966 50.3842 11.1245C50.3842 7.63621 50.6639 5.97583 51.9581 5.97583ZM61.6476 16.3585C61.0539 17.9163 59.6413 21.6808 59.6413 21.6808H61.625C61.7923 21.1333 62.2256 20.0139 62.6431 18.9355L62.6433 18.9349L62.6435 18.9344L62.6437 18.9338L62.6438 18.9336C63.0312 17.933 63.4048 16.9681 63.5393 16.5283L65.5651 9.9555L67.3486 16.5283L68.7206 21.6808H75.1353L68.9224 4.50116H66.0544L61.6476 16.3585ZM89.1662 13.2257H80.3875C80.8075 16.037 82.2068 17.4596 85.5984 17.4596C86.8076 17.4658 88.0068 17.2476 89.1311 16.8166C88.7813 19.0181 86.648 21.9992 82.5208 21.9992C78.0096 21.9992 74.8267 18.443 74.8267 13.1577C74.8267 7.97434 77.7298 4.07548 82.8005 4.07548C86.9627 4.07548 89.1662 6.85359 89.1662 10.6823V13.2257ZM81.8881 6.00906C80.8044 6.00906 80.2449 7.56831 80.2449 10.6845V10.6847C80.2449 11.2944 80.2449 11.7344 80.2792 12.0053H82.3432C83.3919 12.0053 83.462 11.9713 83.462 10.8204C83.4651 7.32982 82.979 6.00906 81.8881 6.00906ZM100.063 4.11168C94.2221 4.11168 90.899 8.00828 90.899 13.3947C90.899 18.7124 93.7312 21.9992 98.1747 22C101.218 22 103.142 20.1366 103.596 16.7834L102.861 17.0204C102.162 17.2573 101.322 17.4604 100.728 17.4604C97.1259 17.4604 96.2517 15.157 96.2517 9.66866C96.2517 7.26338 96.4964 6.34791 97.3355 6.34791C98.6297 6.34791 99.9581 7.87243 102.302 11.3622L103.559 4.79093C102.451 4.34543 101.263 4.11467 100.063 4.11168ZM128.642 4.50116V16.4778C128.642 18.0702 129.061 18.5102 130.006 18.5102C130.565 18.5102 131.055 18.2393 131.51 17.7313V4.50116H137.105V21.5578H131.51V18.68C131.51 18.68 128.851 21.8981 126.788 21.8981C124.305 21.8981 123.048 20.2046 123.048 17.1208V4.50116H128.642ZM114.737 12.0053V4.50116H120.472L120.332 16.9857V21.5593H114.737V13.2257H111.173V21.5578H105.578V4.50116H111.173V12.0053H114.737ZM155 4.50037L151.076 13.9623C153.206 15.3373 154.438 17.8196 154.441 21.6807H149.174C149.174 21.6807 149.293 17.2279 148.448 15.8543C147.077 13.6219 145.637 13.6415 145.637 13.6415C145.637 13.6415 145.632 19.6272 145.632 21.6807H140.217V4.50112H145.637V12.6121C145.978 12.6121 146.311 12.6226 146.635 12.6438L149.908 4.50037H155Z" fill="#262626"/></svg>