<svg width="30" height="30" viewBox="0 0 30 30" fill="none" xmlns="http://www.w3.org/2000/svg"><circle cx="15" cy="15" r="15" fill="#000"/><path d="M7.0129 15.2807L10.4615 16.5666L11.8058 20.8919C11.8643 21.1842 12.215 21.2426 12.4488 21.0673L14.3776 19.4891C14.553 19.3138 14.8452 19.3138 15.079 19.4891L18.5276 22.0025C18.7614 22.1778 19.1121 22.0609 19.1706 21.7687L21.7424 9.49412C21.8008 9.20186 21.5086 8.90961 21.2163 9.02652L7.0129 14.5208C6.6622 14.6377 6.6622 15.1638 7.0129 15.2807ZM11.6305 15.9237L18.4107 11.7737C18.5276 11.7152 18.6445 11.8906 18.5276 11.949L12.9748 17.1511C12.7995 17.3265 12.6241 17.5603 12.6241 17.8525L12.4488 19.2553C12.4488 19.4307 12.1565 19.4891 12.0981 19.2553L11.3967 16.6835C11.2213 16.3913 11.3382 16.0406 11.6305 15.9237Z" fill="#fff"/></svg>