<svg xmlns="http://www.w3.org/2000/svg" style="border: 0 !important; clip: rect(0 0 0 0) !important; height: 1px !important; margin: -1px !important; overflow: hidden !important; padding: 0 !important; position: absolute !important; width: 1px !important;" class="root-svg-symbols-element">
  <defs>
      <clipPath id="clip0"><path fill="#fff" transform="rotate(-180 3.5 3.5)" d="M0 0H7V7H0z"/></clipPath>
<clipPath id="clip0"><path fill="#fff" transform="rotate(-90 20 10)" d="M0 0H20V20H0z"/></clipPath><clipPath id="clip1"><path fill="#fff" transform="rotate(-90 15 15)" d="M0 0H10V10H0z"/></clipPath><clipPath id="clip2"><path fill="#fff" transform="translate(10)" d="M0 0H10V10H0z"/></clipPath><clipPath id="clip3"><path fill="#fff" transform="rotate(90 15 15)" d="M0 0H10V10H0z"/></clipPath><clipPath id="clip4"><path fill="#fff" transform="rotate(90 15 25)" d="M0 0H10V10H0z"/></clipPath><clipPath id="clip5"><path fill="#fff" transform="rotate(-180 20 15)" d="M0 0H10V10H0z"/></clipPath>
  </defs>
    <symbol id="arrow" viewBox="0 0 7 7">
      <g clip-path="url(#clip0)"><path fill-rule="evenodd" clip-rule="evenodd" d="M7 9.53674e-07C7 3.86599 3.86599 7 -1.43051e-06 7L-2.06593e-07 -7L5.38033e-06 3.41715e-07L7 9.53674e-07Z" fill="#8B8B8B"/></g>
    </symbol>
    <symbol id="cloud" viewBox="0 0 40 30">
      <g clip-path="url(#clip0)"><path transform="rotate(-90 10 30)" fill="#E5E5E5" d="M10 30H30V50H10z"/></g><g clip-path="url(#clip1)"><path fill-rule="evenodd" clip-rule="evenodd" d="M1.19249e-07 20L10 20L10 30C4.47715 30 5.33895e-08 25.5228 1.19249e-07 20Z" fill="#E5E5E5"/></g><path fill-rule="evenodd" clip-rule="evenodd" d="M10 10V20H0C0 14.4772 4.47715 10 10 10Z" fill="#E5E5E5"/><g clip-path="url(#clip2)"><path fill-rule="evenodd" clip-rule="evenodd" d="M20 0V10H9.99996C9.99996 4.47715 14.4771 0 20 0Z" fill="#E5E5E5"/></g><g clip-path="url(#clip3)"><path fill-rule="evenodd" clip-rule="evenodd" d="M30 10L20 10L20 0C25.5228 2.41411e-07 30 4.47715 30 10Z" fill="#E5E5E5"/></g><g clip-path="url(#clip4)"><path fill-rule="evenodd" clip-rule="evenodd" d="M40 20L30 20L30 10C35.5228 10 40 14.4772 40 20Z" fill="#E5E5E5"/></g><g clip-path="url(#clip5)"><path fill-rule="evenodd" clip-rule="evenodd" d="M30 30L29.9905 30L30 30L30 10L30 20L40 20C40 25.5228 35.5228 30 30 30Z" fill="#E5E5E5"/></g>
    </symbol>
    <symbol id="err" viewBox="0 0 70 70">
      <circle cx="35" cy="35" r="35" fill="#9B7863"/><path stroke="#fff" stroke-width="2" d="M24.707 24.293L43.707 43.293"/><path stroke="#fff" stroke-width="2" d="M25.293 43.293L44.293 24.293"/>
    </symbol>
    <symbol id="eye" viewBox="0 0 38 29">
      <path d="M23.1895 9.6513C22.8845 9.34634 22.3887 9.34634 22.0838 9.6513C21.7788 9.95626 21.7788 10.4536 22.0838 10.757C22.969 11.6422 23.4584 12.8198 23.4584 14.0741C23.4584 16.6607 21.3534 18.7658 18.7667 18.7658C17.5125 18.7658 16.3349 18.2778 15.4497 17.3911C15.1447 17.0861 14.6489 17.0861 14.344 17.3911C14.039 17.6945 14.039 18.1918 14.344 18.4968C15.5231 19.6791 17.0948 20.3297 18.7667 20.3297C22.2167 20.3297 25.0223 17.5241 25.0223 14.0741C25.0223 12.4022 24.3718 10.8305 23.1895 9.6513Z" fill="#8B8B8B"/><path d="M19.8569 7.92627C19.5018 7.86374 19.139 7.81836 18.7668 7.81836C15.3169 7.81836 12.5112 10.624 12.5112 14.074C12.5112 14.4462 12.5566 14.809 12.6207 15.164C12.6879 15.5425 13.0179 15.8099 13.3886 15.8099C13.434 15.8099 13.4793 15.8068 13.5262 15.7974C13.95 15.7223 14.2346 15.3157 14.1596 14.8919C14.1111 14.626 14.0751 14.3555 14.0751 14.074C14.0751 11.4873 16.1802 9.38224 18.7668 9.38224C19.0483 9.38224 19.3189 9.41824 19.5847 9.46515C20.0008 9.54961 20.4152 9.25557 20.4902 8.83177C20.5653 8.40798 20.2807 8.00134 19.8569 7.92627Z" fill="#8B8B8B"/><path d="M37.3476 13.5689C37.1708 13.3593 32.9405 8.4221 27.1055 5.39909C26.727 5.2005 26.2501 5.35063 26.0514 5.73536C25.8528 6.11854 26.003 6.59079 26.3877 6.78945C30.8824 9.11655 34.4731 12.7479 35.7008 14.0742C33.8366 16.0931 26.5003 23.4576 18.7668 23.4576C16.1426 23.4576 13.498 22.8242 10.9035 21.5731C10.5187 21.3839 10.048 21.5481 9.86037 21.9375C9.67116 22.3254 9.83537 22.7929 10.2248 22.9806C13.032 24.3365 15.9065 25.0215 18.7669 25.0215C28.4021 25.0215 36.988 15.0062 37.3493 14.5793C37.5962 14.2883 37.5947 13.8613 37.3476 13.5689Z" fill="#8B8B8B"/><path d="M23.8982 4.02752C22.1185 3.42852 20.392 3.12671 18.767 3.12671C9.13174 3.12671 0.545886 13.142 0.184623 13.5689C-0.043732 13.8379 -0.0624989 14.2289 0.140858 14.5214C0.248768 14.6762 2.83391 18.3467 7.3145 21.3228C7.44741 21.412 7.59601 21.4542 7.74614 21.4542C7.99796 21.4542 8.24662 21.3322 8.39675 21.1023C8.63603 20.7442 8.53751 20.2578 8.17778 20.0201C4.88734 17.8322 2.63532 15.1907 1.79234 14.1163C3.59243 12.1614 10.9772 4.69067 18.767 4.69067C20.223 4.69067 21.7822 4.96594 23.3993 5.50857C23.809 5.65555 24.2532 5.42881 24.3892 5.01747C24.5269 4.60776 24.3079 4.16519 23.8982 4.02752Z" fill="#8B8B8B"/><path id="pass_last" d="M32.6122 0.228722C32.3073 -0.0762405 31.8115 -0.0762405 31.5065 0.228722L4.92013 26.8152C4.61517 27.1201 4.61517 27.6159 4.92013 27.9209C5.07342 28.0726 5.27355 28.1492 5.47375 28.1492C5.67396 28.1492 5.87409 28.0726 6.02584 27.9209L32.6122 1.33443C32.9172 1.02947 32.9172 0.533684 32.6122 0.228722Z" fill="#8B8B8B"/>
    </symbol>
    <symbol id="inst" viewBox="0 0 30 30">
      <circle cx="15" cy="15" r="15" fill="#000"/><path d="M19.1857 8.24963H10.0645C9.03474 8.24963 8.25012 9.03425 8.25012 10.0641V19.1852C8.25012 20.2151 9.03474 20.9997 10.0645 20.9997H19.1857C20.2155 20.9997 21.0001 20.2151 21.0001 19.1852V10.0641C21.0001 9.03425 20.2155 8.24963 19.1857 8.24963ZM14.6251 18.4497C16.7338 18.4497 18.4501 16.7824 18.4501 14.7718C18.4501 14.4285 18.4011 14.0362 18.303 13.742H19.3819V18.9401C19.3819 19.1852 19.1857 19.4304 18.8915 19.4304H10.3588C10.1136 19.4304 9.86839 19.2343 9.86839 18.9401V13.6929H10.9963C10.8982 14.0362 10.8492 14.3795 10.8492 14.7227C10.8001 16.7824 12.5165 18.4497 14.6251 18.4497ZM14.6251 16.9785C13.252 16.9785 12.1732 15.8997 12.1732 14.5756C12.1732 13.2516 13.252 12.1727 14.6251 12.1727C15.9982 12.1727 17.077 13.2516 17.077 14.5756C17.077 15.9487 15.9982 16.9785 14.6251 16.9785ZM19.3328 11.7314C19.3328 12.0256 19.0876 12.2708 18.7934 12.2708H17.4203C17.1261 12.2708 16.8809 12.0256 16.8809 11.7314V10.4073C16.8809 10.1131 17.1261 9.86791 17.4203 9.86791H18.7934C19.0876 9.86791 19.3328 10.1131 19.3328 10.4073V11.7314Z" fill="#fff"/>
    </symbol>
    <symbol id="logo" viewBox="0 0 155 22">
      <path d="M20.0622 21.6845H0V0H20.0622C20.0622 8.1034 14.4656 10.8423 14.4656 10.8423C14.4656 10.8423 20.0622 13.5706 20.0622 21.6845Z" fill="#262626"/><path fill-rule="evenodd" clip-rule="evenodd" d="M39.2853 11.5623L44.0583 0H38.334L34.2434 10.2241C33.858 10.2 33.4625 10.1879 33.0568 10.1879V0H27.1976V21.6808H33.049L33.0568 11.4921C33.0568 11.4921 34.8808 11.4717 36.6198 14.2966C37.6904 16.0377 37.5392 21.6808 37.5392 21.6808H43.8861C43.8854 16.4528 42.2367 13.2204 39.2853 11.5623ZM60.1773 12.9207C60.1773 7.22941 56.6454 4.04451 52.5533 4.04451C47.7265 4.04451 44.5094 7.4664 44.5094 13.1577C44.5094 18.849 48.0413 21.9992 52.1334 21.9992C56.9594 21.9992 60.1773 18.5811 60.1773 12.9207ZM51.9581 5.97583C52.6928 5.97583 53.253 6.88979 53.6722 8.68602C54.0922 10.4815 54.3017 12.5472 54.3017 14.9155C54.3017 18.4053 54.022 20.0656 52.7279 20.0656C51.9931 20.0656 51.4337 19.1811 51.0137 17.3887C50.5938 15.5962 50.3842 13.4966 50.3842 11.1245C50.3842 7.63621 50.6639 5.97583 51.9581 5.97583ZM61.6476 16.3585C61.0539 17.9163 59.6413 21.6808 59.6413 21.6808H61.625C61.7923 21.1333 62.2256 20.0139 62.6431 18.9355L62.6433 18.9349L62.6435 18.9344L62.6437 18.9338L62.6438 18.9336C63.0312 17.933 63.4048 16.9681 63.5393 16.5283L65.5651 9.9555L67.3486 16.5283L68.7206 21.6808H75.1353L68.9224 4.50116H66.0544L61.6476 16.3585ZM89.1662 13.2257H80.3875C80.8075 16.037 82.2068 17.4596 85.5984 17.4596C86.8076 17.4658 88.0068 17.2476 89.1311 16.8166C88.7813 19.0181 86.648 21.9992 82.5208 21.9992C78.0096 21.9992 74.8267 18.443 74.8267 13.1577C74.8267 7.97434 77.7298 4.07548 82.8005 4.07548C86.9627 4.07548 89.1662 6.85359 89.1662 10.6823V13.2257ZM81.8881 6.00906C80.8044 6.00906 80.2449 7.56831 80.2449 10.6845V10.6847C80.2449 11.2944 80.2449 11.7344 80.2792 12.0053H82.3432C83.3919 12.0053 83.462 11.9713 83.462 10.8204C83.4651 7.32982 82.979 6.00906 81.8881 6.00906ZM100.063 4.11168C94.2221 4.11168 90.899 8.00828 90.899 13.3947C90.899 18.7124 93.7312 21.9992 98.1747 22C101.218 22 103.142 20.1366 103.596 16.7834L102.861 17.0204C102.162 17.2573 101.322 17.4604 100.728 17.4604C97.1259 17.4604 96.2517 15.157 96.2517 9.66866C96.2517 7.26338 96.4964 6.34791 97.3355 6.34791C98.6297 6.34791 99.9581 7.87243 102.302 11.3622L103.559 4.79093C102.451 4.34543 101.263 4.11467 100.063 4.11168ZM128.642 4.50116V16.4778C128.642 18.0702 129.061 18.5102 130.006 18.5102C130.565 18.5102 131.055 18.2393 131.51 17.7313V4.50116H137.105V21.5578H131.51V18.68C131.51 18.68 128.851 21.8981 126.788 21.8981C124.305 21.8981 123.048 20.2046 123.048 17.1208V4.50116H128.642ZM114.737 12.0053V4.50116H120.472L120.332 16.9857V21.5593H114.737V13.2257H111.173V21.5578H105.578V4.50116H111.173V12.0053H114.737ZM155 4.50037L151.076 13.9623C153.206 15.3373 154.438 17.8196 154.441 21.6807H149.174C149.174 21.6807 149.293 17.2279 148.448 15.8543C147.077 13.6219 145.637 13.6415 145.637 13.6415C145.637 13.6415 145.632 19.6272 145.632 21.6807H140.217V4.50112H145.637V12.6121C145.978 12.6121 146.311 12.6226 146.635 12.6438L149.908 4.50037H155Z" fill="#262626"/>
    </symbol>
    <symbol id="succ" viewBox="0 0 70 70">
      <circle cx="35" cy="35" r="35" fill="#9B7863"/><path d="M19 36.1194L32.0704 50L51 19" stroke="#fff" stroke-width="2"/>
    </symbol>
    <symbol id="tg" viewBox="0 0 30 30">
      <circle cx="15" cy="15" r="15" fill="#000"/><path d="M7.0129 15.2807L10.4615 16.5666L11.8058 20.8919C11.8643 21.1842 12.215 21.2426 12.4488 21.0673L14.3776 19.4891C14.553 19.3138 14.8452 19.3138 15.079 19.4891L18.5276 22.0025C18.7614 22.1778 19.1121 22.0609 19.1706 21.7687L21.7424 9.49412C21.8008 9.20186 21.5086 8.90961 21.2163 9.02652L7.0129 14.5208C6.6622 14.6377 6.6622 15.1638 7.0129 15.2807ZM11.6305 15.9237L18.4107 11.7737C18.5276 11.7152 18.6445 11.8906 18.5276 11.949L12.9748 17.1511C12.7995 17.3265 12.6241 17.5603 12.6241 17.8525L12.4488 19.2553C12.4488 19.4307 12.1565 19.4891 12.0981 19.2553L11.3967 16.6835C11.2213 16.3913 11.3382 16.0406 11.6305 15.9237Z" fill="#fff"/>
    </symbol>
    <symbol id="user" viewBox="0 0 32 32">
      <ellipse cx="15.557" cy="7.75" rx="7.75" ry="7.779" transform="rotate(-90 15.557 7.75)" fill="#262626"/><path fill-rule="evenodd" clip-rule="evenodd" d="M2.984e-05 31.0001L2.984e-05 31.0001L31.115 31.0001L31.115 31C31.115 22.4396 24.1497 15.5 15.5575 15.5C15.5417 15.5 15.5259 15.5 15.5101 15.5001L15.5575 15.5001L15.5575 31.0001L2.984e-05 31.0001Z" fill="#262626"/><path fill-rule="evenodd" clip-rule="evenodd" d="M15.5577 15.5001V31.0001H0.000183105V31.076C6.10814e-05 31.0507 0 31.0253 0 31C0 22.4396 6.96532 15.5 15.5575 15.5L15.6046 15.5001H15.5577Z" fill="#262626"/>
    </symbol>
    <symbol id="user2" viewBox="0 0 32 32">
      <ellipse cx="15.557" cy="7.75" rx="7.75" ry="7.779" transform="rotate(-90 15.557 7.75)" fill="#8B8B8B"/><path fill-rule="evenodd" clip-rule="evenodd" d="M-0.000214301 31.0001L-0.000214301 31.0001L31.1147 31.0001L31.1147 31C31.1147 22.4396 24.1494 15.5 15.5573 15.5C15.5414 15.5 15.5256 15.5 15.5098 15.5001L15.5573 15.5001L15.5573 31.0001L-0.000214301 31.0001Z" fill="#8B8B8B"/><path fill-rule="evenodd" clip-rule="evenodd" d="M15.5577 15.5001V31.0001H0.000183105V31.076C6.10352e-05 31.0507 0 31.0253 0 31C0 22.4396 6.96532 15.5 15.5575 15.5L15.6046 15.5001H15.5577Z" fill="#8B8B8B"/>
    </symbol></svg>